#define bullet_width 10
#define bullet_height 10
static unsigned char bullet_bits[] = {
   0x00, 0x00, 0x00, 0x00, 0x1e, 0x00, 0xf2, 0x00, 0x82, 0x00, 0x82, 0x00,
   0x82, 0x00, 0xfe, 0x00, 0x00, 0x00, 0x00, 0x00 };
