#define max_width 16
#define max_height 16
static unsigned char max_bits[] = {
   0xff, 0xff, 0xff, 0xff, 0x7f, 0xfe, 0x3f, 0xfc, 0x1f, 0xf8, 0x0f, 0xf0,
   0x07, 0xe0, 0x03, 0xc0, 0x1f, 0xf8, 0x1f, 0xf8, 0x1f, 0xf8, 0x1f, 0xf8,
   0x1f, 0xf8, 0x1f, 0xf8, 0x1f, 0xf8, 0xff, 0xff };
